<svg xmlns="http://www.w3.org/2000/svg" width="1400" height="560" viewBox="0 0 1400 560">
<rect width="1400" height="560" rx="18" fill="#0A0B0C"/>
<text x="42" y="48" font-family="monospace" font-size="14" fill="#746E65" letter-spacing="3">TACTICAL CAPABILITY MATRIX</text>

<g font-family="monospace">
  <rect x="40" y="82" width="310" height="410" rx="10" fill="#0D0E10" stroke="#3A2F2F"/>
  <text x="68" y="123" font-size="14" fill="#FF4D4D">DEFENSIVE</text>
  <text x="68" y="170" font-size="16" fill="#EFE9DD">Threat Detection</text>
  <text x="68" y="210" font-size="16" fill="#EFE9DD">Threat Hunting</text>
  <text x="68" y="250" font-size="16" fill="#EFE9DD">SOC</text>
  <text x="68" y="290" font-size="16" fill="#EFE9DD">Log Analysis</text>
  <text x="68" y="330" font-size="16" fill="#EFE9DD">Incident Analysis</text>

  <rect x="380" y="82" width="310" height="410" rx="10" fill="#0D0E10" stroke="#3A2F2F"/>
  <text x="408" y="123" font-size="14" fill="#F5A623">SECURITY TOOLS</text>
  <text x="408" y="170" font-size="16" fill="#EFE9DD">Wireshark</text>
  <text x="408" y="210" font-size="16" fill="#EFE9DD">Burp Suite</text>
  <text x="408" y="250" font-size="16" fill="#EFE9DD">Nmap</text>
  <text x="408" y="290" font-size="16" fill="#EFE9DD">IDA Pro</text>
  <text x="408" y="330" font-size="16" fill="#EFE9DD">cURL</text>

  <rect x="720" y="82" width="310" height="410" rx="10" fill="#0D0E10" stroke="#3A2F2F"/>
  <text x="748" y="123" font-size="14" fill="#FF4D4D">ENGINEERING</text>
  <text x="748" y="170" font-size="16" fill="#EFE9DD">Python</text>
  <text x="748" y="210" font-size="16" fill="#EFE9DD">C / C++</text>
  <text x="748" y="250" font-size="16" fill="#EFE9DD">Java</text>
  <text x="748" y="290" font-size="16" fill="#EFE9DD">JavaScript</text>
  <text x="748" y="330" font-size="16" fill="#EFE9DD">Shell</text>

  <rect x="1060" y="82" width="300" height="410" rx="10" fill="#0D0E10" stroke="#3A2F2F"/>
  <text x="1088" y="123" font-size="14" fill="#F5A623">INFRASTRUCTURE</text>
  <text x="1088" y="170" font-size="16" fill="#EFE9DD">Linux</text>
  <text x="1088" y="210" font-size="16" fill="#EFE9DD">Docker</text>
  <text x="1088" y="250" font-size="16" fill="#EFE9DD">Nginx</text>
  <text x="1088" y="290" font-size="16" fill="#EFE9DD">Networking</text>
  <text x="1088" y="330" font-size="16" fill="#EFE9DD">Git / GitHub</text>
</g>
</svg>
